<svg xmlns="http://www.w3.org/2000/svg" viewBox="0 0 500 500"><g id="freepik--Floor--inject-42"><line x1="469.96" y1="442.24" x2="482.64" y2="442.24" style="fill:none;stroke:#263238;stroke-linecap:round;stroke-linejoin:round"></line><line x1="25.41" y1="442.24" x2="460.18" y2="442.24" style="fill:none;stroke:#263238;stroke-linecap:round;stroke-linejoin:round"></line></g><g id="freepik--Window--inject-42"><g style="opacity:0.30000000000000004"><rect x="27.11" y="13.18" width="242.48" height="331.95" style="fill:none;stroke:#000;stroke-linecap:round;stroke-linejoin:round;stroke-width:2px"></rect><line x1="27.11" y1="54.54" x2="268.9" y2="54.54" style="fill:none;stroke:#000;stroke-linecap:round;stroke-linejoin:round;stroke-width:2px"></line><line x1="27.11" y1="101.55" x2="268.9" y2="101.55" style="fill:none;stroke:#000;stroke-linecap:round;stroke-linejoin:round;stroke-width:2px"></line><line x1="27.11" y1="151.09" x2="268.9" y2="151.09" style="fill:none;stroke:#000;stroke-linecap:round;stroke-linejoin:round;stroke-width:2px"></line><line x1="27.11" y1="200.63" x2="268.9" y2="200.63" style="fill:none;stroke:#000;stroke-linecap:round;stroke-linejoin:round;stroke-width:2px"></line><line x1="27.11" y1="250.17" x2="268.9" y2="250.17" style="fill:none;stroke:#000;stroke-linecap:round;stroke-linejoin:round;stroke-width:2px"></line><line x1="27.11" y1="299.71" x2="268.9" y2="299.71" style="fill:none;stroke:#000;stroke-linecap:round;stroke-linejoin:round;stroke-width:2px"></line><line x1="75.33" y1="12.5" x2="75.33" y2="345.08" style="fill:none;stroke:#000;stroke-linecap:round;stroke-linejoin:round;stroke-width:2px"></line><line x1="124.33" y1="12.5" x2="124.33" y2="345.08" style="fill:none;stroke:#000;stroke-linecap:round;stroke-linejoin:round;stroke-width:2px"></line><line x1="173.33" y1="12.5" x2="173.33" y2="345.08" style="fill:none;stroke:#000;stroke-linecap:round;stroke-linejoin:round;stroke-width:2px"></line><line x1="222.33" y1="12.5" x2="222.33" y2="345.08" style="fill:none;stroke:#000;stroke-linecap:round;stroke-linejoin:round;stroke-width:2px"></line></g></g><g id="freepik--Picture--inject-42"><rect x="287.77" y="12.5" width="171.66" height="211.24" style="fill:#858585"></rect><rect x="293.62" y="19.69" width="159.97" height="196.86" style="fill:#dbdbdb"></rect><path d="M329.48,200c21.08-24,58.67-75.49,80.61-157.12" style="fill:none;stroke:#8c9296;stroke-miterlimit:10"></path><path d="M355.73,164.62s-1-4.14,1.27-10,8.15-18.41,8.15-18.41a31.84,31.84,0,0,1-1.79,13.88A91.74,91.74,0,0,1,355.73,164.62Z" style="fill:#FF0000"></path><path d="M355.73,164.62s5.4-5.71,10.6-6.12,20.38-1.35,20.95-1.24-6.39,5.72-12.8,7.29S355.73,164.62,355.73,164.62Z" style="fill:#FF0000"></path><path d="M364.67,152.48s45.18-38.66,69.09-70" style="fill:none;stroke:#8c9296;stroke-miterlimit:10"></path><line x1="393.34" y1="93.11" x2="393.38" y2="51.49" style="fill:none;stroke:#8c9296;stroke-miterlimit:10"></line><path d="M393.55,77.63a12.72,12.72,0,0,1-5.3-4.64c-2.52-3.61-7.47-11.88-7.47-11.88a22.23,22.23,0,0,1,7.33,6.43A63.72,63.72,0,0,1,393.55,77.63Z" style="fill:#FF0000"></path><path d="M393.55,77.63s-1.2-5.35.59-8.52,7.15-12.29,7.44-12.58.82,5.91-.77,10.23S393.55,77.63,393.55,77.63Z" style="fill:#FF0000"></path><path d="M376,130.47a12.68,12.68,0,0,1-5.29-4.63c-2.52-3.61-7.47-11.88-7.47-11.88a22,22,0,0,1,7.32,6.43A63.36,63.36,0,0,1,376,130.47Z" style="fill:#FF0000"></path><path d="M376,130.47s-1.19-5.34.6-8.51,7.15-12.3,7.43-12.59.82,5.92-.76,10.23S376,130.47,376,130.47Z" style="fill:#FF0000"></path><path d="M395.51,47.36s-3.39-3.06-5.57-2c-3.58,1.81-.44,4-.44,4s-6.72,1.66-4.73,4.78c1.1,1.73,3.79,1.93,3.79,1.93s.08,2.53,2.14,3.23S395,57,395,57a1.89,1.89,0,0,0,2.9.74,2.65,2.65,0,0,0,1-3.45,3.46,3.46,0,0,0,3.15-3.48C402.39,47.39,398.32,45.69,395.51,47.36Z" style="fill:#fff"></path><path d="M395.87,52.13c-.18,1-1.42,1.61-2.75,1.36s-2.28-1.26-2.09-2.26a2.23,2.23,0,0,1,2.76-1.37C395.13,50.11,396.06,51.13,395.87,52.13Z" style="fill:#a3a3a3"></path><path d="M438.05,84.32s3.75-2.6,3.17-5c-1-3.9-3.77-1.33-3.77-1.33s-.09-6.93-3.59-5.69c-1.93.67-2.74,3.25-2.74,3.25s-2.48-.5-3.62,1.35,1.31,4.71,1.31,4.71a1.89,1.89,0,0,0-1.38,2.66,2.66,2.66,0,0,0,3.13,1.79,3.46,3.46,0,0,0,2.68,3.86C436.47,91,439,87.44,438.05,84.32Z" style="fill:#fff"></path><path d="M433.33,83.59c-.94-.4-1.25-1.75-.71-3s1.75-1.93,2.68-1.52,1.25,1.75.71,3S434.26,84,433.33,83.59Z" style="fill:#a3a3a3"></path><line x1="400.5" y1="74.08" x2="428.34" y2="55.72" style="fill:none;stroke:#8c9296;stroke-miterlimit:10"></line><line x1="389.74" y1="129.54" x2="390.51" y2="115.65" style="fill:none;stroke:#8c9296;stroke-miterlimit:10"></line><line x1="417.02" y1="102.03" x2="437.14" y2="100.93" style="fill:none;stroke:#8c9296;stroke-miterlimit:10"></line><path d="M395,111.79s-3.38-3.07-5.57-2c-3.58,1.81-.44,4-.44,4s-6.72,1.66-4.73,4.79c1.1,1.72,3.79,1.93,3.79,1.93s.08,2.53,2.14,3.22,4.28-2.34,4.28-2.34a1.89,1.89,0,0,0,2.9.74,2.65,2.65,0,0,0,1-3.45,3.48,3.48,0,0,0,3.16-3.49C401.87,111.82,397.8,110.12,395,111.79Z" style="fill:#fff"></path><path d="M395.35,116.55c-.18,1-1.42,1.62-2.75,1.37s-2.27-1.26-2.09-2.27,1.42-1.61,2.76-1.36S395.54,115.55,395.35,116.55Z" style="fill:#a3a3a3"></path><path d="M399.73,96s1.83-4.18.09-5.9c-2.86-2.82-3.91.85-3.91.85s-3.72-5.84-6.05-3c-1.28,1.59-.62,4.21-.62,4.21s-2.37.88-2.37,3.06,3.59,3.31,3.59,3.31a1.89,1.89,0,0,0,.22,3,2.65,2.65,0,0,0,3.6-.12,3.47,3.47,0,0,0,4.31,1.88C401.9,102.5,402.21,98.1,399.73,96Z" style="fill:#fff"></path><path d="M395.33,97.83c-1,.14-2-.83-2.17-2.18a2.23,2.23,0,0,1,1.48-2.7c1-.14,2,.84,2.18,2.18S396.34,97.69,395.33,97.83Z" style="fill:#a3a3a3"></path><path d="M377.92,137s4.16-1.87,4-4.32c-.22-4-3.47-2-3.47-2s1.18-6.82-2.49-6.25c-2,.32-3.29,2.7-3.29,2.7s-2.34-.94-3.8.67.42,4.86.42,4.86a1.89,1.89,0,0,0-1.84,2.36,2.67,2.67,0,0,0,2.75,2.34,3.46,3.46,0,0,0,1.93,4.28C375.13,143.31,378.32,140.26,377.92,137Z" style="fill:#fff"></path><path d="M373.4,135.44a2.21,2.21,0,0,1-.14-3.07c.76-1.13,2.07-1.58,2.91-1a2.56,2.56,0,0,1-2.77,4.07Z" style="fill:#a3a3a3"></path><path d="M366.73,148.16s-3.39-3.06-5.57-2c-3.58,1.81-.44,4-.44,4S354,151.84,356,155c1.09,1.72,3.79,1.93,3.79,1.93s.07,2.53,2.14,3.22,4.28-2.34,4.28-2.34a1.88,1.88,0,0,0,2.9.74,2.65,2.65,0,0,0,1-3.45,3.46,3.46,0,0,0,3.15-3.49C373.61,148.19,369.54,146.49,366.73,148.16Z" style="fill:#fff"></path><path d="M367.09,152.93c-.18,1-1.42,1.61-2.76,1.36s-2.27-1.26-2.08-2.26,1.42-1.62,2.76-1.37S367.28,151.92,367.09,152.93Z" style="fill:#a3a3a3"></path><path d="M412.74,66.6a49.69,49.69,0,0,1,9.51-.2c4.45.43,14.74,1.35,14.74,1.35S425,72,416.45,71,406.64,69,406.64,69Z" style="fill:#FF0000"></path><path d="M408.36,69s3.33-1,5-6.77,3.2-10.85,3.8-11.92-4.14,2.86-7,9S408.36,69,408.36,69Z" style="fill:#FF0000"></path><path d="M409,62.82s-3.39-3.06-5.57-2c-3.58,1.81-.44,4-.44,4s-6.72,1.66-4.73,4.78c1.1,1.73,3.79,1.93,3.79,1.93s.08,2.53,2.14,3.23,4.28-2.35,4.28-2.35a1.89,1.89,0,0,0,2.9.74,2.65,2.65,0,0,0,1-3.45,3.46,3.46,0,0,0,3.15-3.49C415.91,62.85,411.84,61.15,409,62.82Z" style="fill:#fff"></path><path d="M409.39,67.59c-.18,1-1.42,1.61-2.75,1.36s-2.27-1.26-2.09-2.26,1.42-1.62,2.76-1.37S409.58,66.58,409.39,67.59Z" style="fill:#a3a3a3"></path><path d="M421.19,97.2s-3.38-3.06-5.57-2c-3.58,1.81-.44,4-.44,4s-6.72,1.66-4.73,4.78c1.1,1.73,3.8,1.93,3.8,1.93s.07,2.53,2.13,3.23,4.29-2.35,4.29-2.35a1.88,1.88,0,0,0,2.9.74,2.65,2.65,0,0,0,1-3.45,3.48,3.48,0,0,0,3.16-3.49C428.07,97.23,424,95.53,421.19,97.2Z" style="fill:#fff"></path><path d="M421.56,102c-.19,1-1.42,1.61-2.76,1.36s-2.27-1.26-2.09-2.26a2.23,2.23,0,0,1,2.76-1.37C420.81,100,421.74,101,421.56,102Z" style="fill:#a3a3a3"></path><path d="M426.83,56.59s1.22-.17.31-2.7-3.37-4.18-2.29-5.75,4.33,2.18,4.33,2.18-1.62-4,1.51-3.86,2.15,4.34,2.15,4.34,3.47-4.88,4.64-2.69S436,53,436,53s4.51-.94,4.66,1.45-3,2.6-3,2.6,3,1.74,1.68,2.67-5.57-.83-5.57-.83-.32,1.71-1.69,1.66S428.27,56.27,426.83,56.59Z" style="fill:#fff"></path><path d="M429.89,55a4.09,4.09,0,0,1-3.06,1.6,38.44,38.44,0,0,1,5.9.11" style="fill:#fff"></path><path d="M403.72,116.23s-1-4.14,1.27-10,8.15-18.41,8.15-18.41a31.7,31.7,0,0,1-1.78,13.87A92.11,92.11,0,0,1,403.72,116.23Z" style="fill:#FF0000"></path><path d="M403.72,116.23s5.4-5.71,10.61-6.12,20.37-1.35,20.94-1.24-6.39,5.72-12.8,7.29S403.72,116.23,403.72,116.23Z" style="fill:#FF0000"></path><path d="M435.72,100.07s.38.07,1.33-2.91.25-6.66,2-6.72,1.65,3.86,1.32,4.58,3.53-6.25,4.63-3.67-1.52,6-1.52,6,3.43-2.52,3.71,1.28-3.07,3.77-3.07,3.77,3.08,2.55,1.62,4a3.54,3.54,0,0,1-3.34,1s.22,2-1.37,2.11-2.61-4-3.92-5.46S434.75,101.08,435.72,100.07Z" style="fill:#fff"></path><polyline points="441.39 100.34 435.79 101.86 439.54 103.94" style="fill:none;stroke:#8c9296;stroke-miterlimit:10"></polyline><line x1="437.14" y1="100.93" x2="439.43" y2="98.2" style="fill:none;stroke:#8c9296;stroke-miterlimit:10"></line><path d="M416.34,39.87s2.34-3.92.83-5.85c-2.48-3.16-4,.35-4,.35s-2.95-6.26-5.62-3.7c-1.47,1.42-1.14,4.1-1.14,4.1s-2.47.57-2.74,2.73,3.14,3.74,3.14,3.74a1.89,1.89,0,0,0-.16,3,2.65,2.65,0,0,0,3.59.34,3.48,3.48,0,0,0,4,2.41C417.67,46.62,418.53,42.3,416.34,39.87Z" style="fill:#fff"></path><path d="M411.74,41.16c-1,0-1.86-1.07-1.88-2.43s.79-2.48,1.81-2.49,1.86,1.07,1.88,2.43S412.76,41.15,411.74,41.16Z" style="fill:#a3a3a3"></path><path d="M343.22,65.56s3.34-1.29,4.62.14c2.11,2.33-.79,3-.79,3s4.45,3.1,2.11,4.83a4.31,4.31,0,0,1-3.32.34,2.84,2.84,0,0,1-2.47,1.76c-1.7-.07-2.47-2.92-2.47-2.92a1.48,1.48,0,0,1-2.33-.27,2.09,2.09,0,0,1,.21-2.82,2.71,2.71,0,0,1-1.32-3.44C338.18,63.65,341.63,63.55,343.22,65.56Z" style="fill:#fff"></path><path d="M341.61,69c-.15.78.59,1.58,1.63,1.77a1.74,1.74,0,0,0,2.17-1.07c.14-.78-.59-1.58-1.64-1.77A1.73,1.73,0,0,0,341.61,69Z" style="fill:#a3a3a3"></path><path d="M352.24,200.43c-8.2-25.86-17.41-70-11.34-127.69" style="fill:none;stroke:#8c9296;stroke-miterlimit:10"></path><path d="M343.27,165.69s-22.17-41-30.85-70.61" style="fill:none;stroke:#8c9296;stroke-miterlimit:10"></path><line x1="339.01" y1="114.2" x2="350.69" y2="83.75" style="fill:none;stroke:#8c9296;stroke-miterlimit:10"></line><line x1="339.13" y1="98.27" x2="323.93" y2="77.01" style="fill:none;stroke:#8c9296;stroke-miterlimit:10"></line><line x1="331.39" y1="141.86" x2="334.73" y2="131.49" style="fill:none;stroke:#8c9296;stroke-miterlimit:10"></line><line x1="319.18" y1="114.06" x2="304.37" y2="105.99" style="fill:none;stroke:#8c9296;stroke-miterlimit:10"></line><path d="M328.07,78.6s0,3.57-1.75,4.28c-2.93,1.15-2.56-1.82-2.56-1.82s-4.48,3.07-5.27.27a4.27,4.27,0,0,1,.85-3.22,2.84,2.84,0,0,1-.77-2.93c.67-1.57,3.6-1.29,3.6-1.29a1.48,1.48,0,0,1,1.08-2.08A2.07,2.07,0,0,1,325.81,73a2.73,2.73,0,0,1,3.69,0C331.64,74.55,330.51,77.82,328.07,78.6Z" style="fill:#fff"></path><path d="M325.47,75.9a2,2,0,1,0,.24,2.4A1.74,1.74,0,0,0,325.47,75.9Z" style="fill:#a3a3a3"></path><path d="M300.28,104s0-3.58,1.75-4.29c2.92-1.15,2.56,1.82,2.56,1.82s4.47-3.08,5.26-.28a4.28,4.28,0,0,1-.84,3.22,2.84,2.84,0,0,1,.77,2.93c-.66,1.57-3.6,1.29-3.6,1.29a1.49,1.49,0,0,1-1.08,2.09,2.08,2.08,0,0,1-2.56-1.19,2.71,2.71,0,0,1-3.68,0C296.71,108.08,297.84,104.82,300.28,104Z" style="fill:#fff"></path><path d="M302.88,106.73a2,2,0,1,0-.24-2.4A1.73,1.73,0,0,0,302.88,106.73Z" style="fill:#a3a3a3"></path><path d="M341.7,144.05s3.34-1.29,4.63.13c2.11,2.33-.8,3-.8,3s4.45,3.11,2.11,4.83a4.28,4.28,0,0,1-3.32.35,2.82,2.82,0,0,1-2.47,1.75c-1.7-.07-2.47-2.92-2.47-2.92a1.48,1.48,0,0,1-2.33-.27,2.09,2.09,0,0,1,.21-2.82,2.72,2.72,0,0,1-1.32-3.44C336.66,142.13,340.11,142,341.7,144.05Z" style="fill:#fff"></path><path d="M340.09,147.43c-.14.79.59,1.58,1.64,1.78a1.75,1.75,0,0,0,2.16-1.08c.14-.78-.59-1.58-1.64-1.77A1.74,1.74,0,0,0,340.09,147.43Z" style="fill:#a3a3a3"></path><path d="M347.49,168.15s-.23,3.57-2.06,4.14c-3,.94-2.42-2-2.42-2s-4.68,2.74-5.27-.11a4.29,4.29,0,0,1,1.09-3.15,2.85,2.85,0,0,1-.56-3c.78-1.52,3.69-1,3.69-1a1.47,1.47,0,0,1,1.23-2,2.09,2.09,0,0,1,2.47,1.38,2.71,2.71,0,0,1,3.67.24C351.35,164.38,350,167.55,347.49,168.15Z" style="fill:#fff"></path><path d="M345.1,165.27a2,2,0,1,0,.07,2.41A1.75,1.75,0,0,0,345.1,165.27Z" style="fill:#a3a3a3"></path><path d="M332.68,89.48s1.14-3.39,3.06-3.47c3.14-.13,1.82,2.55,1.82,2.55s5.23-1.43,5.06,1.47a4.29,4.29,0,0,1-1.86,2.77,2.85,2.85,0,0,1-.23,3c-1.15,1.26-3.83,0-3.83,0s.19,1.62-1.7,1.61a2.08,2.08,0,0,1-2-2,2.71,2.71,0,0,1-3.49-1.18C328,92.13,330.11,89.41,332.68,89.48Z" style="fill:#fff"></path><path d="M334.24,92.88a2,2,0,1,0,.57-2.34A1.74,1.74,0,0,0,334.24,92.88Z" style="fill:#a3a3a3"></path><path d="M317.68,118.44s-3.43,1-4.6-.5c-1.92-2.49,1-3,1-3s-4.19-3.45-1.72-5a4.27,4.27,0,0,1,3.33-.08,2.86,2.86,0,0,1,2.6-1.56c1.7.21,2.24,3.11,2.24,3.11a1.48,1.48,0,0,1,2.3.46,2.08,2.08,0,0,1-.44,2.79,2.72,2.72,0,0,1,1.05,3.53C322.56,120.75,319.11,120.57,317.68,118.44Z" style="fill:#fff"></path><path d="M319.56,115.2a2,2,0,0,0-3.73-1c-.21.77.46,1.62,1.49,1.9A1.74,1.74,0,0,0,319.56,115.2Z" style="fill:#a3a3a3"></path><path d="M340.29,110.36s2.78-5.4,6.55-7.66,10.28-5.39,10.28-5.39-3.92,8.35-8.79,11.19S340.29,110.36,340.29,110.36Z" style="fill:#FF0000"></path><path d="M344.07,100.61a47,47,0,0,0-.16-6.54c-.34-2.43-1.53-8.77-1.53-8.77s-2.61,11.94-1.45,16.3l1.16,4.36Z" style="fill:#FF0000"></path><path d="M352.42,83.32a1.85,1.85,0,1,1-1.48-2.15A1.84,1.84,0,0,1,352.42,83.32Z" style="fill:#fff"></path><path d="M354.29,91.26a2.13,2.13,0,1,1-1.7-2.49A2.12,2.12,0,0,1,354.29,91.26Z" style="fill:#fff"></path><path d="M347.28,88.68a1.07,1.07,0,1,1-.86-1.25A1.08,1.08,0,0,1,347.28,88.68Z" style="fill:#fff"></path><path d="M350.67,95.92a1.94,1.94,0,1,1-1.56-2.27A1.95,1.95,0,0,1,350.67,95.92Z" style="fill:#fff"></path><path d="M354.48,86.56a1.26,1.26,0,1,1-1-1.47A1.27,1.27,0,0,1,354.48,86.56Z" style="fill:#fff"></path><path d="M356,80.53a1.45,1.45,0,0,1-2.86-.53,1.45,1.45,0,1,1,2.86.53Z" style="fill:#fff"></path><line x1="373.56" y1="125.94" x2="374.99" y2="93.36" style="fill:none;stroke:#8c9296;stroke-miterlimit:10"></line><path d="M376.49,92.4a1.84,1.84,0,1,1-2.08-1.57A1.84,1.84,0,0,1,376.49,92.4Z" style="fill:#fff"></path><path d="M380.79,99.34a2.14,2.14,0,1,1-2.41-1.81A2.13,2.13,0,0,1,380.79,99.34Z" style="fill:#fff"></path><path d="M373.31,99.12a1.05,1.05,0,0,1-.91,1.2,1.06,1.06,0,1,1,.91-1.2Z" style="fill:#fff"></path><path d="M378.82,104.91a1.94,1.94,0,1,1-2.19-1.66A1.94,1.94,0,0,1,378.82,104.91Z" style="fill:#fff"></path><path d="M379.47,94.83a1.26,1.26,0,0,1-2.5.35,1.28,1.28,0,0,1,1.08-1.43A1.26,1.26,0,0,1,379.47,94.83Z" style="fill:#fff"></path><path d="M379,88.63a1.45,1.45,0,0,1-2.88.4,1.45,1.45,0,1,1,2.88-.4Z" style="fill:#fff"></path><path d="M313.36,97.07a50,50,0,0,0-4.54-3.2c-2.3-1.42-4.95-.93-4.59-1.84s.77-2,2.11-1.78a9.31,9.31,0,0,1,2.91,1.33s-.75-4.48.93-4a3.43,3.43,0,0,1,2.17,2.17s1.71-2.84,2.45-1.51a2.93,2.93,0,0,1,.11,2.58s2.06-2.58,2.5-.72l.44,1.86s2.7-.68,2.38,1S314.51,95.12,313.36,97.07Z" style="fill:#fff"></path><path d="M335.19,132a49.76,49.76,0,0,0-4.53-3.21c-2.31-1.41-5-.92-4.59-1.84s.77-2,2.1-1.78a9.43,9.43,0,0,1,2.91,1.33s-.74-4.48.94-4a3.43,3.43,0,0,1,2.16,2.18s1.71-2.84,2.45-1.52a3,3,0,0,1,.11,2.59s2.06-2.58,2.5-.72l.45,1.86s2.69-.69,2.37,1S336.34,130.07,335.19,132Z" style="fill:#fff"></path><path d="M323.47,124.41s0-2,2.23-6.69,5.11-10.5,5.25-11.26.81,6.27-1.29,11.2A13.4,13.4,0,0,1,323.47,124.41Z" style="fill:#FF0000"></path><path d="M323.47,124.41a50.13,50.13,0,0,0-8.12-4.08c-6-2.56-7.81-3.62-7.81-3.62A14.38,14.38,0,0,0,312.7,124C316.85,127.12,323.47,124.41,323.47,124.41Z" style="fill:#FF0000"></path><path d="M343,162s4.2-15.39,7.66-18.1c0,0,.63,7.22-1.52,11.35A20.32,20.32,0,0,1,343,162Z" style="fill:#FF0000"></path><path d="M342.8,160.55s-3.85-3.67-6.27-5.5a106.3,106.3,0,0,1-8-7.81s.42,6.2,4.5,9.72S342.8,160.55,342.8,160.55Z" style="fill:#FF0000"></path></g><g id="freepik--Plant--inject-42"><path d="M368,271.57s-2.95,8.13-9.23,9.24-17.36-11.08-10.34-17.36S365,267.14,368,271.57Z" style="fill:#FF0000;stroke:#263238;stroke-linecap:round;stroke-linejoin:round"></path><path d="M377.57,231.68s-9.24,22.53-5.54,33.61,26.59,19.21,33.24,4.81-8.12-34.73-13.66-39.16S379.42,228,377.57,231.68Z" style="fill:#FF0000;stroke:#263238;stroke-linecap:round;stroke-linejoin:round"></path><path d="M431.5,241.28s-15.88,14.41-17.73,28.82,8.86,19.57,20,17.73S450.34,257.91,447,245,431.5,241.28,431.5,241.28Z" style="fill:#FF0000;stroke:#263238;stroke-linecap:round;stroke-linejoin:round"></path><path d="M434.45,321.07s-17.73.74-18.46,9.24,7.75,10.34,16.25,2.95S441.84,321.44,434.45,321.07Z" style="fill:#FF0000;stroke:#263238;stroke-linecap:round;stroke-linejoin:round"></path><path d="M416.28,332.33s14-6.39,20.27-7.5" style="fill:none;stroke:#263238;stroke-miterlimit:10"></path><path d="M438.41,376.66s-13-12.05-19.57-6.58-1.87,12.79,9.36,13.61S443.35,382.16,438.41,376.66Z" style="fill:#FF0000;stroke:#263238;stroke-linecap:round;stroke-linejoin:round"></path><path d="M417.61,371.71s14.38,5.4,19.61,9.08" style="fill:none;stroke:#263238;stroke-miterlimit:10"></path><path d="M369.71,373.11s18-16.61,27-9.08,2.58,17.64-12.9,18.76S362.89,380.7,369.71,373.11Z" style="fill:#FF0000;stroke:#263238;stroke-linecap:round;stroke-linejoin:round"></path><path d="M398.38,366.29s-19.83,7.44-27,12.52" style="fill:none;stroke:#263238;stroke-miterlimit:10"></path><path d="M390.5,338.8s-1.85,8.87-8.5,12.19-18.47-3.69-12.19-14.4S387.17,334.37,390.5,338.8Z" style="fill:#FF0000;stroke:#263238;stroke-linecap:round;stroke-linejoin:round"></path><path d="M375,311.1s-3.32-7.39-16.25-2.59-18.1,12.19-10,14.78S375,311.1,375,311.1Z" style="fill:#FF0000;stroke:#263238;stroke-linecap:round;stroke-linejoin:round"></path><path d="M372.51,310.76s-13.7,1.48-21.1,7.77" style="fill:none;stroke:#263238;stroke-miterlimit:10"></path><path d="M411.92,222.44s2.22,5.17,6.65,4.07,5.54-7.76,12.56-5.91,12.93,10,12.93,6.28-8.87-13.3-18.84-13.3S412.29,217.64,411.92,222.44Z" style="fill:#FF0000;stroke:#263238;stroke-linecap:round;stroke-linejoin:round"></path><path d="M375,311.1s15.91-3.06,22.53,14.61a48.44,48.44,0,0,1,1.66,5.4" style="fill:none;stroke:#263238;stroke-miterlimit:10"></path><path d="M441.36,294s3.33-7.39,16.26-2.59,18.1,12.19,10,14.78S441.36,294,441.36,294Z" style="fill:#FF0000;stroke:#263238;stroke-linecap:round;stroke-linejoin:round"></path><path d="M444.32,294.47s13.32-.74,19.62,7" style="fill:none;stroke:#263238;stroke-miterlimit:10"></path><path d="M441.36,294a20.39,20.39,0,0,0-11,1.5" style="fill:none;stroke:#263238;stroke-miterlimit:10"></path><path d="M383.46,280.74c-7.79-8-15.5-9.17-15.5-9.17s-11.37-3-15.81,1.06" style="fill:none;stroke:#263238;stroke-miterlimit:10"></path><line x1="385.04" y1="239.82" x2="384.35" y2="236.73" style="fill:none;stroke:#263238;stroke-miterlimit:10"></line><path d="M403,403.12s1.66-63.61,0-82.93-9.38-41.95-9.38-41.95l-7.87-35.15" style="fill:none;stroke:#263238;stroke-miterlimit:10"></path><line x1="435.86" y1="253.47" x2="437.29" y2="250.42" style="fill:none;stroke:#263238;stroke-miterlimit:10"></line><path d="M406.9,403.05s.55-58,2.76-74.58,11-42.5,11-42.5l13.56-29" style="fill:none;stroke:#263238;stroke-miterlimit:10"></path><path d="M416.28,332.33s-3.86,33.27-6.07,70.8" style="fill:none;stroke:#263238;stroke-miterlimit:10"></path><path d="M397.51,403.05s1.11-53.06-1.1-60.23-5.91-4-5.91-4-10.22,1.2-13.92,7.13" style="fill:none;stroke:#263238;stroke-miterlimit:10"></path><path d="M400.05,335.25c2.89,16.18.22,67.85.22,67.85" style="fill:none;stroke:#263238;stroke-miterlimit:10"></path><path d="M427.22,297.22c-3.19,2.19-6.26,5.72-8.38,11.38-6.63,17.66-5.87,94.53-5.87,94.53" style="fill:none;stroke:#263238;stroke-miterlimit:10"></path><path d="M385.38,282.84a52.19,52.19,0,0,1,9.37,16.92c8.83,25.39,12.15,91.15,10.49,103.29" style="fill:none;stroke:#263238;stroke-miterlimit:10"></path><path d="M407.81,306.6c-.53,32-.91,96.45-.91,96.45" style="fill:none;stroke:#263238;stroke-miterlimit:10"></path><path d="M407.88,302.62c.37-21.19.79-41.93,1.22-53.08,1.11-28.71,2.82-27.1,2.82-27.1s2.05-6.44,13.52-5.7" style="fill:none;stroke:#263238;stroke-miterlimit:10"></path><path d="M393.75,326.81s-9.24-8.23-5.54-12.28,26.59-7,33.24-1.76-8.13,12.69-13.67,14.31S395.59,328.16,393.75,326.81Z" style="fill:#FF0000;stroke:#263238;stroke-linecap:round;stroke-linejoin:round"></path><path d="M402.27,320.07a17.35,17.35,0,0,0-.2,2.46" style="fill:none;stroke:#263238;stroke-miterlimit:10"></path><path d="M405.45,310.46a42,42,0,0,0-2.37,6.11" style="fill:none;stroke:#263238;stroke-miterlimit:10"></path><path d="M393.75,380.66s-9.24-8.24-5.54-12.29,26.59-7,33.24-1.75-8.13,12.69-13.67,14.31S395.59,382,393.75,380.66Z" style="fill:#FF0000;stroke:#263238;stroke-linecap:round;stroke-linejoin:round"></path><path d="M405.45,364.3s-3.38,6.76-3.38,12.07" style="fill:none;stroke:#263238;stroke-miterlimit:10"></path><path d="M400.62,357.89s-6.27-5.6-3.76-8.35,18.06-4.76,22.57-1.19-5.52,8.62-9.28,9.72S401.87,358.8,400.62,357.89Z" style="fill:#FF0000;stroke:#263238;stroke-linecap:round;stroke-linejoin:round"></path><path d="M408.57,346.78s-2.3,4.59-2.3,8.2" style="fill:none;stroke:#263238;stroke-miterlimit:10"></path><rect x="391.95" y="393.89" width="25" height="55.43" style="fill:#263238;stroke:#263238;stroke-linecap:round;stroke-linejoin:round"></rect></g><g id="freepik--Characters--inject-42"><path d="M121.16,359.28a120,120,0,0,0,1.71,27.39c2.69,15.64,5.87,47.18,5.87,47.18s-4.89,12.23-6.85,14.67-8.31,7.09-6.35,9.29,6.84,2.2,13,1.71,10.52-6.11,12.23-7.33,3.18,0,2.69-4.89-2.69-11.74-2.69-13,1.47-36.18,2.69-44.5,1.47-30.31,1.47-30.31Z" style="fill:#fff;stroke:#263238;stroke-linecap:round;stroke-linejoin:round"></path><path d="M143.41,447.3a80.18,80.18,0,0,0-2.11-10.19,20,20,0,0,1-4.74,2.85,13.65,13.65,0,0,0-3.42-6.11c-2.69-2.69-4.4,0-4.4,0s-4.89,12.23-6.85,14.67-8.31,7.09-6.35,9.29,6.84,2.2,13,1.71,10.52-6.11,12.23-7.33S143.9,452.19,143.41,447.3Z" style="fill:#fff;stroke:#263238;stroke-linecap:round;stroke-linejoin:round"></path><path d="M185.21,359.28a120,120,0,0,1-1.71,27.39c-2.69,15.64-5.86,47.18-5.86,47.18s4.89,12.23,6.84,14.67,8.31,7.09,6.36,9.29-6.85,2.2-13,1.71-10.51-6.11-12.22-7.33-3.18,0-2.69-4.89,2.69-11.74,2.69-13-1.47-36.18-2.69-44.5-1.47-30.31-1.47-30.31Z" style="fill:#fff;stroke:#263238;stroke-linecap:round;stroke-linejoin:round"></path><path d="M163,447.3a76.85,76.85,0,0,1,2.11-10.19,19.81,19.81,0,0,0,4.73,2.85,13.76,13.76,0,0,1,3.42-6.11c2.69-2.69,4.41,0,4.41,0s4.89,12.23,6.84,14.67,8.31,7.09,6.36,9.29-6.85,2.2-13,1.71-10.51-6.11-12.22-7.33S162.48,452.19,163,447.3Z" style="fill:#fff;stroke:#263238;stroke-linecap:round;stroke-linejoin:round"></path><path d="M113.83,285.45,112.36,363s30.8,3.67,33.25,3.67H152l2.44-6.36,1.22,7.09s3.67-.24,19.32-.49,20.29-3.18,20.29-3.18l-5.38-81.9-74.81-4.4Z" style="fill:#263238;stroke:#263238;stroke-linecap:round;stroke-linejoin:round"></path><path d="M202,237v8.8a100.46,100.46,0,0,1,1.79,16.61c0,7.66-3.1,31.6-3.1,31.6s1.63,5.05,2.12,7.5-1.46,8.3-1.79,9-5.05,3.09-6.35,3.25-5.38-1.79-5.38-2.6.16-2.61.65-2.61,3.1.33,3.1.33l2.28-2.45s-1.63-3.42-1.79-3.91-2.28-3.91-2.28-6.84.16-6,.16-6l-3.1-33.56L188,239.79Z" style="fill:#fff;stroke:#263238;stroke-linecap:round;stroke-linejoin:round"></path><path d="M193,296.15s-.82,5.87-1,6.84-3.09,4.4-2.12,5.54,2.61,1.79,3.1.33a5.38,5.38,0,0,1,2.28-2.45,9.32,9.32,0,0,0,2.61-3.91" style="fill:#fff;stroke:#263238;stroke-linecap:round;stroke-linejoin:round"></path><path d="M100.25,233.51l-1.59,3.7a73.27,73.27,0,0,0-9.77,14.24c-3.25,6.29-13.3,21-17.77,27.44l-3.91,3c-1,.79-1.69,14.62-1.69,14.62s5.62.67,7.65-.68,1.35-4.38,1.35-4.38a8.05,8.05,0,0,0,2.81-3.6,12.17,12.17,0,0,0,.08-3.72c2.79-2.23,24.43-19.59,28.38-24.27,4.22-5,9.49-16.89,9.49-16.89l2.64-6.6Z" style="fill:#fff;stroke:#263238;stroke-linecap:round;stroke-linejoin:round"></path><path d="M135.1,165.25s-29,10.28-30.06,14.13-11.31,56.79-11.31,56.79l20.81,4.37-1.54,48a268.75,268.75,0,0,0,43.17,3.34c22.35-.26,35.21-2.29,35.21-2.29l-2.32-48.07,17-2.83s-6.43-52.93-8.22-55.76-24.67-14.9-24.67-14.9Z" style="fill:#FF0000;stroke:#263238;stroke-linecap:round;stroke-linejoin:round"></path><line x1="189.06" y1="241.57" x2="186.75" y2="207.65" style="fill:none;stroke:#263238;stroke-linecap:round;stroke-linejoin:round"></line><line x1="115.69" y1="207.38" x2="115.83" y2="203.28" style="fill:none;stroke:#263238;stroke-linecap:round;stroke-linejoin:round"></line><line x1="114.54" y1="240.54" x2="115.49" y2="213" style="fill:none;stroke:#263238;stroke-linecap:round;stroke-linejoin:round"></line><path d="M189.33,210.35s2.55-4.26,3-7.18.49-3.65,2.07-3.16,1.94,2.55,1.82,3.77l-.12,1.22a3.81,3.81,0,0,0-2.55.48C192.73,206.21,189.33,210.35,189.33,210.35Z" style="fill:#fff;stroke:#263238;stroke-linecap:round;stroke-linejoin:round"></path><path d="M187.26,213.14s5.47-7.29,6.33-7.66,6.81.49,7.53.61,2.07.36,1.95,2.19a3.18,3.18,0,0,1-1.46,2.55s1.34,1.7,1.22,2.68a5.56,5.56,0,0,1-.73,1.94,4.08,4.08,0,0,1,1,2.31,6,6,0,0,1-1,2.68s1,2.92.12,4.13-6.57,3.16-8,3.65-6.08.24-6.08.24Z" style="fill:#fff;stroke:#263238;stroke-linecap:round;stroke-linejoin:round"></path><line x1="201.61" y1="210.83" x2="194.8" y2="211.56" style="fill:none;stroke:#263238;stroke-linecap:round;stroke-linejoin:round"></line><line x1="202.1" y1="215.45" x2="196.63" y2="217.4" style="fill:none;stroke:#263238;stroke-linecap:round;stroke-linejoin:round"></line><line x1="202.1" y1="220.44" x2="197.36" y2="222.5" style="fill:none;stroke:#263238;stroke-linecap:round;stroke-linejoin:round"></line><polygon points="156.48 179.9 171.29 185.71 166.83 175.32 162.15 177.26 156.48 179.9" style="fill:#263238;stroke:#263238;stroke-linecap:round;stroke-linejoin:round"></polygon><path d="M141.83,156.61a15.17,15.17,0,0,0-3.07-.43c-.44.14-5.42,8.64-5.42,8.64l1.9,16.69L144,176l6.74,3.22,5.71.73,6.3-1.46s8.78,8.78,9.22,7.47,2.49-18.6,2.49-19.63-4.25-8.49-5.56-9.08a9.47,9.47,0,0,0-3.23-.59Z" style="fill:#fff;stroke:#263238;stroke-linecap:round;stroke-linejoin:round"></path><path d="M142.42,148.56l-1.76,11.72s3.37,11.42,7.18,15.08a20.93,20.93,0,0,1,5.12,7.76s8.79-6.88,11-10.4a25.56,25.56,0,0,0,3.8-8.93c.44-2.49.59-16,.59-16S158.23,154.71,156,155,142.42,148.56,142.42,148.56Z" style="fill:#fff;stroke:#263238;stroke-linecap:round;stroke-linejoin:round"></path><polygon points="151.11 154.09 141.83 156.61 142.42 148.56 151.11 154.09" style="fill:#263238;stroke:#263238;stroke-linecap:round;stroke-linejoin:round"></polygon><path d="M174.19,131.52s4-3.16,5.18-.66-1.24,6.49-3.12,8.62a7.45,7.45,0,0,1-4,2.46Z" style="fill:none;stroke:#263238;stroke-linecap:round;stroke-linejoin:round"></path><path d="M136.2,128.9s1,14.26,2,16.45,9.74,10.57,12.59,11.91,5.54,1.85,7.72.34,11.08-7.72,12.59-9.74,4.69-24.66,4.69-24.66a9.75,9.75,0,0,0-1.17-3.19c-1-1.85-25.84-18-27.86-17.46s-10.57,13.93-10.57,15.28Z" style="fill:#fff;stroke:#263238;stroke-linecap:round;stroke-linejoin:round"></path><path d="M179.33,103.23c-3.19-6.55-14.1-12.93-21.31-11.75a25.27,25.27,0,0,0-12.25,6s-7.22-1-9.4,0-6.21,7.22-6,12.92,4,10.74,4,10.74,1,8.9,1.85,9.23,2-10.91,2-10.91a27.24,27.24,0,0,0,6.38-5.2,9.75,9.75,0,0,0,2.69-6.88A30.38,30.38,0,0,0,150,114.3c1.51,2.35,6.88,5,9.73,5.71s1.85-2.52,2.19-1.68,3.35,3.52,7,5.87,4.53,2.18,5.37,1.18c0,0-1,9.9-.33,8.22.46-1.16,2.45-6.65,3.63-9.93,1.66.1,3.41-.19,4.26-1.65C183.69,118.83,182.52,109.77,179.33,103.23Z" style="fill:#263238;stroke:#263238;stroke-linecap:round;stroke-linejoin:round"></path><path d="M150.72,139.89s2.52,3,4.87,3,5.37-2.18,5.37-2.18" style="fill:none;stroke:#263238;stroke-linecap:round;stroke-linejoin:round"></path><path d="M147.53,144.42s4,3.36,7.56,3.19a13.81,13.81,0,0,0,6.54-2.35" style="fill:none;stroke:#263238;stroke-linecap:round;stroke-linejoin:round"></path><path d="M149.76,131s-3.35-5-7.88-3.69" style="fill:none;stroke:#263238;stroke-linecap:round;stroke-linejoin:round"></path><path d="M162.31,131.67s4-3.19,7.55-1.51" style="fill:none;stroke:#263238;stroke-linecap:round;stroke-linejoin:round"></path><path d="M147.89,129.42a1.52,1.52,0,1,1-1.52-1.51A1.52,1.52,0,0,1,147.89,129.42Z" style="fill:#263238"></path><path d="M167.05,131.23a1.52,1.52,0,1,1-1.52-1.51A1.52,1.52,0,0,1,167.05,131.23Z" style="fill:#263238"></path><path d="M140,123.68s5.75-2.61,11,0" style="fill:none;stroke:#263238;stroke-linecap:round;stroke-linejoin:round"></path><path d="M159.89,124.57s6.62-1.74,9.93,3" style="fill:none;stroke:#263238;stroke-linecap:round;stroke-linejoin:round"></path><path d="M136.2,128.9s-3.6-3.63-5.06-1.28.44,6.59,2.05,8.93a7.46,7.46,0,0,0,3.66,2.93Z" style="fill:#fff;stroke:#263238;stroke-linecap:round;stroke-linejoin:round"></path><polygon points="135.88 181.03 150.77 179.17 141.93 172.12 135.88 181.03" style="fill:#263238;stroke:#263238;stroke-linecap:round;stroke-linejoin:round"></polygon><path d="M86.28,214.94A18.61,18.61,0,0,0,79,223.5c-1.79,4.17-5.57,26.12-5.28,36.11a24.29,24.29,0,0,0,8.56,17.56,19.78,19.78,0,0,0,5,2.71l-.86-10.42,5.14-3.57.71-8.13,15.42-.29,1.43,8.42,5.14,3.86a57.73,57.73,0,0,1-.58,6.85c-.42,2-.71,3.85-.71,3.85s4.43-5.56,7.57-10.28,5.28-8.7,4.85-19-4.57-22.12-7.57-27.4-3.86-10.11-11.71-11.68A30.2,30.2,0,0,0,86.28,214.94Z" style="fill:#263238;stroke:#263238;stroke-linecap:round;stroke-linejoin:round"></path><path d="M66.26,302.76s-.49,11.91-.65,20.4.65,19.74,1.47,23.33.16,10.28.65,13.38,5.55,7.83,5.55,7.83,2.77-17.13,2.61-17.78S78,304.23,78,304.23l-11.42-3.76Z" style="fill:#fff;stroke:#263238;stroke-linecap:round;stroke-linejoin:round"></path><line x1="71.48" y1="354.32" x2="73.93" y2="362.32" style="fill:none;stroke:#263238;stroke-linecap:round;stroke-linejoin:round"></line><path d="M133.34,302.37S135,314.17,136,322.6s1.29,19.72.82,23.37.85,10.25.66,13.38-4.75,8.34-4.75,8.34-4.44-16.78-4.34-17.45S121.79,305,121.79,305l11-4.86Z" style="fill:#fff;stroke:#263238;stroke-linecap:round;stroke-linejoin:round"></path><line x1="133.19" y1="354.2" x2="131.53" y2="362.39" style="fill:none;stroke:#263238;stroke-linecap:round;stroke-linejoin:round"></line><path d="M82.27,388.88S80,407.1,81.81,416s6.59,34,6.89,35.08,1.08-.61-1.83,5.05-6.44,9-5.67,10,4.13,2,7.81,1.84,7.35-.46,8.43-1.84.76-10.11.76-13.94-.31-8-.31-8S99.27,412,99,403.58s-.46-14.25-.46-14.25Z" style="fill:#fff;stroke:#263238;stroke-linecap:round;stroke-linejoin:round"></path><path d="M98.2,452.7a11.69,11.69,0,0,0-5-2.4A4.29,4.29,0,0,0,89,451.94c-.17.45-.71,1.48-2.1,4.18-2.92,5.67-6.44,9-5.67,10s4.13,2,7.81,1.84,7.35-.46,8.43-1.84S98.23,456.76,98.2,452.7Z" style="fill:#fff;stroke:#263238;stroke-linecap:round;stroke-linejoin:round"></path><path d="M123.87,388.88s2.3,18.22.46,27.11-6.59,34-6.89,35.08-1.07-.61,1.84,5.05,6.43,9,5.66,10-4.13,2-7.81,1.84-7.35-.46-8.42-1.84-.77-10.11-.77-13.94.31-8,.31-8-1.38-32.17-1.08-40.6.46-14.25.46-14.25Z" style="fill:#fff;stroke:#263238;stroke-linecap:round;stroke-linejoin:round"></path><path d="M107.94,452.7a11.68,11.68,0,0,1,5.06-2.4,4.3,4.3,0,0,1,4.18,1.64c.16.45.71,1.48,2.1,4.18,2.91,5.67,6.43,9,5.66,10s-4.13,2-7.81,1.84-7.35-.46-8.42-1.84S107.92,456.76,107.94,452.7Z" style="fill:#fff;stroke:#263238;stroke-linecap:round;stroke-linejoin:round"></path><path d="M75.56,346.16l-6.36,41,9.63,3.1s.32,1.64,5.22,2.62,14.85,1,14.85,1,9.14,2,15.83,1A34.77,34.77,0,0,0,126.15,391a20.81,20.81,0,0,0,7.18-2c2.94-1.63,5.71-5.71,5.71-5.71l-8.81-37.21L104.61,340Z" style="fill:#FF0000;stroke:#263238;stroke-linecap:round;stroke-linejoin:round"></path><line x1="79.32" y1="388.92" x2="83.07" y2="355.3" style="fill:none;stroke:#263238;stroke-linecap:round;stroke-linejoin:round"></line><line x1="99.22" y1="392.02" x2="100.37" y2="363.79" style="fill:none;stroke:#263238;stroke-linecap:round;stroke-linejoin:round"></line><line x1="120.44" y1="354.98" x2="125.82" y2="388.92" style="fill:none;stroke:#263238;stroke-linecap:round;stroke-linejoin:round"></line><polygon points="86.42 269.46 69.69 278.28 60.71 300.15 76.22 306.67 73.11 348.78 101.18 360.2 103.96 350.57 106.24 359.55 132.03 347.96 124.19 305.37 139.04 300.8 129.25 277.95 114.25 269.75 100.91 261.1 86.42 269.46" style="fill:#fff;stroke:#263238;stroke-linecap:round;stroke-linejoin:round"></polygon><polygon points="91.56 265.89 100.27 274.88 109.12 265.89 107.69 257.47 92.28 257.76 91.56 265.89" style="fill:#fff;stroke:#263238;stroke-linecap:round;stroke-linejoin:round"></polygon><polygon points="100.55 278.17 92.99 274.74 92.56 282.59 100.84 280.02 109.69 283.59 108.69 275.17 100.55 278.17" style="fill:#FF0000;stroke:#263238;stroke-linecap:round;stroke-linejoin:round"></polygon><line x1="87.56" y1="269.89" x2="92.27" y2="277.88" style="fill:#fff;stroke:#263238;stroke-linecap:round;stroke-linejoin:round"></line><line x1="112.97" y1="269.6" x2="108.69" y2="275.17" style="fill:#fff;stroke:#263238;stroke-linecap:round;stroke-linejoin:round"></line><path d="M114.4,228.5l-2.32.08-.11-3.51s-1.57,2.86-2.14,3.57h0l-7.84.28-1-5.29-1.85,5.14-9.28-.57-.57-4.28-2.43,4.42-1.85.58s-.43,18.55.14,21.26,6,8,8,9.14,5.71,5.28,9,4.14,11.56-8.42,12.71-10.28S114.4,228.5,114.4,228.5Z" style="fill:#fff;stroke:#263238;stroke-linecap:round;stroke-linejoin:round"></path><path d="M98.89,245.32s-.49,1.05,0,1.54a2.33,2.33,0,0,0,2.11.65c.9-.16,1.71-.65,1.63-1.14s-.33-1.46-.33-1.46" style="fill:none;stroke:#263238;stroke-linecap:round;stroke-linejoin:round"></path><path d="M95.2,250.19s4.38,3.13,10.42,0c0,0-3.85,3.65-5.42,3.86S95.2,250.19,95.2,250.19Z" style="fill:none;stroke:#263238;stroke-linecap:round;stroke-linejoin:round"></path><path d="M89.13,240.63s4.43-.86,6.28,1.85" style="fill:none;stroke:#263238;stroke-linecap:round;stroke-linejoin:round"></path><path d="M104.2,242.19s3.82-2.31,6-1.26" style="fill:none;stroke:#263238;stroke-linecap:round;stroke-linejoin:round"></path><path d="M88.28,237.63s3-3.57,6.85-2.42" style="fill:none;stroke:#263238;stroke-linecap:round;stroke-linejoin:round"></path><path d="M104.55,235.49s4.71-1,6.42,2.43" style="fill:none;stroke:#263238;stroke-linecap:round;stroke-linejoin:round"></path><path d="M94.24,241.8a1.11,1.11,0,1,1-1.11-1.11A1.11,1.11,0,0,1,94.24,241.8Z" style="fill:#263238"></path><path d="M107.29,242.55a1.11,1.11,0,1,1-.93-1.27A1.11,1.11,0,0,1,107.29,242.55Z" style="fill:#263238"></path><path d="M84.28,239.34s-2.57-3.56-4.28-1,0,5.56,1.43,6.7,3.42,2.72,3.42,2.72Z" style="fill:#fff;stroke:#263238;stroke-linecap:round;stroke-linejoin:round"></path><path d="M115.25,239.63s1.72-2.85,3.72-1.57.14,5.28-1.15,6.85a13.13,13.13,0,0,1-2.57,2.43Z" style="fill:#fff;stroke:#263238;stroke-linecap:round;stroke-linejoin:round"></path><line x1="76.22" y1="306.67" x2="78.34" y2="289.54" style="fill:#fff;stroke:#263238;stroke-linecap:round;stroke-linejoin:round"></line><line x1="124.19" y1="305.37" x2="119.79" y2="288.56" style="fill:#fff;stroke:#263238;stroke-linecap:round;stroke-linejoin:round"></line><path d="M68.58,279.9s-3.41,2.37-4.75,3.41-2.37,2.37-1.18,3.7,8.15,3.56,8.6,3.41,1.63-2.07.89-3.11-5-2.82-5-2.82Z" style="fill:#fff;stroke:#263238;stroke-linecap:round;stroke-linejoin:round"></path><path d="M62.65,287s-2.52,4-1.48,4.9,7.7,1.77,8.74,1a4.46,4.46,0,0,0,1.34-2.52Z" style="fill:#fff;stroke:#263238;stroke-linecap:round;stroke-linejoin:round"></path><path d="M61.17,291.91s-.89,2.66.14,3.55,5.49,1.78,6.53,1.49.89-3.56.89-3.56Z" style="fill:#fff;stroke:#263238;stroke-linecap:round;stroke-linejoin:round"></path><path d="M62.35,296.5s-.59,1,.89,2.52,5,1.93,4.45.3A4.89,4.89,0,0,0,65.91,297Z" style="fill:#fff;stroke:#263238;stroke-linecap:round;stroke-linejoin:round"></path><path d="M246.86,136.18s-2.94-5.21-11.09-5.66-22.86,10.41-25.13,18.33,2,18.79,2,21.05.91,12.45-1.81,18.34-5.66,7.92-6.34,11.32.46,4.53.46,4.53l56.36,3.39s-3.17-8.15-4.53-12.9,8.15-26.94,6.79-39.16S255.24,134.36,246.86,136.18Z" style="fill:#263238;stroke:#263238;stroke-linecap:round;stroke-linejoin:round"></path><path d="M220,424.41l2.38,16.92a39,39,0,0,1-8.39,8.95c-5.18,3.92-6,6.72-5.88,8.54s3.78,3.21,9.52,1.54,9.51-6.58,10.63-7.42,3.35-1.26,3.63-5.45.14-9.51.14-9.51l1.12-14.69Z" style="fill:#fff;stroke:#263238;stroke-linecap:round;stroke-linejoin:round"></path><path d="M232,446.77c-1.28,1.39-6.92,6.79-12.22,7.43-4.7.58-7-1.58-7.61-2.37-3.5,3.12-4.12,5.42-4,7,.14,1.82,3.78,3.21,9.52,1.54s9.51-6.58,10.63-7.42,3.35-1.26,3.63-5.45C231.93,447.25,231.94,447,232,446.77Z" style="fill:#FF0000;stroke:#263238;stroke-linecap:round;stroke-linejoin:round"></path><path d="M257.79,424.41l-2.38,16.92a39,39,0,0,0,8.39,8.95c5.18,3.92,6,6.72,5.88,8.54s-3.78,3.21-9.51,1.54-9.51-6.58-10.63-7.42-3.36-1.26-3.64-5.45-.14-9.51-.14-9.51l-1.12-14.69Z" style="fill:#fff;stroke:#263238;stroke-linecap:round;stroke-linejoin:round"></path><path d="M245.86,446.77c1.28,1.39,6.92,6.79,12.21,7.43,4.7.58,7-1.58,7.62-2.37,3.49,3.12,4.11,5.42,4,7-.14,1.82-3.78,3.21-9.51,1.54s-9.51-6.58-10.63-7.42-3.36-1.26-3.64-5.45C245.88,447.25,245.87,447,245.86,446.77Z" style="fill:#FF0000;stroke:#263238;stroke-linecap:round;stroke-linejoin:round"></path><path d="M205.42,269.11s-1.41,57.92.47,76.75,10.83,79.82,10.83,79.82,6.36,3.06,10.83,2.35a31.57,31.57,0,0,0,8.24-2.59l-.7-62.39,6.59,62.63s5.41,3.06,10.83,3.06,8-1.18,8-1.18l6.83-103.12-.24-56.51-61-7.06Z" style="fill:#FF0000;stroke:#263238;stroke-linecap:round;stroke-linejoin:round"></path><line x1="230.52" y1="303.52" x2="230.14" y2="298.54" style="fill:none;stroke:#263238;stroke-linecap:round;stroke-linejoin:round"></line><line x1="235.09" y1="363.05" x2="230.82" y2="307.34" style="fill:none;stroke:#263238;stroke-linecap:round;stroke-linejoin:round"></line><path d="M222.18,194.37l-7.56,6.27s-6.27,22.69-6.71,29.61-.43,37.61-.43,37.61a75.34,75.34,0,0,0,24,6.49c13.61,1.29,20.1-2.81,20.1-2.81l-7.13-73.71-3.25-4.11Z" style="fill:#fff;stroke:#263238;stroke-linecap:round;stroke-linejoin:round"></path><path d="M221.57,181l-1.76,15.13,2.81,3.52s-3,13.72-2.81,16,2.46,12,2.46,12,7.21-17.77,7.56-18.47.36-7.92.36-7.92l12.66-6.33-2.11-12.67S226.67,184.87,221.57,181Z" style="fill:#fff;stroke:#263238;stroke-linecap:round;stroke-linejoin:round"></path><path d="M241,141.65s-16.9,9.23-18.28,11.12-5.37,14.77-5.71,17.69,5.09,16.55,8,17.93,15.64-3.1,17.36-4.13,5.15-5.67,5.15-5.67,2.58.35,3.44-.34a9.08,9.08,0,0,0,1.72-2.58,20.92,20.92,0,0,1-2.75-9.45c-.18-5.32.17-10.48-2.75-15.63A61.4,61.4,0,0,0,241,141.65Z" style="fill:#fff;stroke:#263238;stroke-linecap:round;stroke-linejoin:round"></path><path d="M230.81,162s-1.69-4.81-5.47-4.31" style="fill:none;stroke:#263238;stroke-linecap:round;stroke-linejoin:round"></path><path d="M238.67,165.57s5.65-1.46,8.89,1.39" style="fill:none;stroke:#263238;stroke-linecap:round;stroke-linejoin:round"></path><path d="M244.52,166.65a1.4,1.4,0,1,1-1.39-1.39A1.4,1.4,0,0,1,244.52,166.65Z" style="fill:#263238"></path><circle cx="228.76" cy="160.49" r="1.26" style="fill:#263238"></circle><path d="M228.23,170.66a1.47,1.47,0,0,0,.22,1.93c.93,1.07,1.78,2,2.57,2.07s2.71-.07,3.28-.79" style="fill:none;stroke:#263238;stroke-linecap:round;stroke-linejoin:round"></path><path d="M223.87,173.09s2.34,4.43,5.39,5.25a25.42,25.42,0,0,0,7.32.41s-6.44,2.25-8.44,2.37S223.87,173.09,223.87,173.09Z" style="fill:none;stroke:#263238;stroke-linecap:round;stroke-linejoin:round"></path><path d="M232.79,155.32a7.79,7.79,0,0,0-7.42-1.79" style="fill:none;stroke:#263238;stroke-linecap:round;stroke-linejoin:round"></path><path d="M240.93,159.42a7.62,7.62,0,0,1,7.71,4.29" style="fill:none;stroke:#263238;stroke-linecap:round;stroke-linejoin:round"></path><path d="M305.16,300.14s3.83,2.17,4.57,2.54,2.59,3.15,5.18,4.63,4.45,2.78,3,3.52-3.15.93-4.08.37l-.92-.55,2.31,4.08L317,317.9c.53.94,2.39,2.86.74,3.69a2,2,0,0,1-1.78-.14,5.21,5.21,0,0,1-1.37-1.24,47.37,47.37,0,0,1-5-6.95q1.89,4.15,3.77,8.31a13,13,0,0,1,1.26,2.84c.14.85-.61,1.3-1.37,1.46-1.84.4-2.88-2.28-3.63-3.48l-2.07-3.34c-.94-1.5-1.85-3-2.81-4.51l1.68,4.65c.65,1.79,1.48,3.53,2.11,5.32.26.71.14,1.55-.68,1.72-2.37.49-3-1.57-3.74-3.25l-1.41-3.24c-.62-1.43-1.24-2.85-1.85-4.28l1.66,9.08s-.35,2.4-2.16,1.31c-.88-.53-1.71-3.06-1.71-3.06l-1.31-7.14-3.16-6.3Z" style="fill:#fff;stroke:#263238;stroke-linecap:round;stroke-linejoin:round"></path><path d="M312.88,310.65l-3.34-1.3s-4.26,1.67-7.22-.56l-3-2.22" style="fill:#fff;stroke:#263238;stroke-linecap:round;stroke-linejoin:round"></path><path d="M242.85,194.9s6.57,5.3,8.08,6.17,14.7,3.46,15.56,6.27,15.78,53,15.78,53l22.89,39.84-11,9.21S276,285.15,274.28,283s.21,40.86.21,40.86-17.07,5-23.78,4.32c0,0-6.05-68.52-7.13-77.17S242.85,194.9,242.85,194.9Z" style="fill:#a3a3a3;stroke:#263238;stroke-linecap:round;stroke-linejoin:round"></path><path d="M259.05,229.88c-.34-4.16-.55-7-.55-7" style="fill:none;stroke:#263238;stroke-linecap:round;stroke-linejoin:round"></path><path d="M274.28,283s-10.81-16-11.89-19.67c-.63-2.12-1.83-15.29-2.73-26" style="fill:none;stroke:#263238;stroke-linecap:round;stroke-linejoin:round"></path><path d="M219.81,196.13s-8.44,29.58-8.44,33.25,1.95,100.09,1.95,100.09L201,323l-2.81-85,2.81-34.8Z" style="fill:#a3a3a3;stroke:#263238;stroke-linecap:round;stroke-linejoin:round"></path><path d="M253.82,323.77,253.74,334s-2.52,9.62-2.81,15.69-1.48,23.38-1.34,26.93-.88,6.07,0,7,4.44,3.84,5.63,4,4.14-1.18,4.44-2.07-2.67-1.63-3.26-2.22-1.33-2.81-.89-3.55,2.52,4.59,3.56,3.85.44-1.48-.15-2.81a19.55,19.55,0,0,1-1-4.59c-.29-1.78-1.92-4.74-2.22-6.51s7.4-20.13,8.44-25.16A133.85,133.85,0,0,0,265.72,331l.74-5.47L254,321.71Z" style="fill:#fff;stroke:#263238;stroke-linecap:round;stroke-linejoin:round"></path><path d="M322.65,324.7l1.53,9.29s2.51,9.62,2.81,15.69,1.48,23.38,1.33,26.93.89,6.07,0,7-4.44,3.84-5.62,4-4.15-1.18-4.44-2.07,2.66-1.63,3.25-2.22,1.34-2.81.89-3.55-2.51,4.59-3.55,3.85-.44-1.48.15-2.81a19.08,19.08,0,0,0,1-4.59c.3-1.78,1.93-4.74,2.22-6.51s-7.4-20.13-8.43-25.16A131.93,131.93,0,0,1,312.19,331l-.74-5.47L322,321Z" style="fill:#fff;stroke:#263238;stroke-linecap:round;stroke-linejoin:round"></path><path d="M269.42,405s-1.92,12.29-.88,20.87,1.18,29.6,1.18,29.6-2.66,6.06-4.59,8-3.4,3-2.51,4,14.35,0,14.35,0,3.26.74,2.81-4.73,0-17-.14-24.12,4-18.5,4-24.12v-9.77Z" style="fill:#fff;stroke:#263238;stroke-linecap:round;stroke-linejoin:round"></path><path d="M279.78,462.74c-.08-1.05-.13-2.33-.16-3.75l-3.54-.25a18.82,18.82,0,0,0-2.36-3.85c-1.63-2.07-4,.6-4,.6s-2.66,6.06-4.59,8-3.4,3-2.51,4,14.35,0,14.35,0S280.23,468.21,279.78,462.74Z" style="fill:#263238;stroke:#263238;stroke-linecap:round;stroke-linejoin:round"></path><path d="M310.56,405s1.93,12.29.89,20.87-1.18,29.6-1.18,29.6,2.66,6.06,4.58,8,3.41,3,2.52,4-14.35,0-14.35,0-3.26.74-2.82-4.73,0-17,.15-24.12-4-18.5-4-24.12v-9.77Z" style="fill:#fff;stroke:#263238;stroke-linecap:round;stroke-linejoin:round"></path><path d="M300.2,462.74c.09-1.05.14-2.33.17-3.75l3.53-.25a18.63,18.63,0,0,1,2.37-3.85c1.63-2.07,4,.6,4,.6s2.66,6.06,4.58,8,3.41,3,2.52,4-14.35,0-14.35,0S299.76,468.21,300.2,462.74Z" style="fill:#263238;stroke:#263238;stroke-linecap:round;stroke-linejoin:round"></path><path d="M265.13,355l-.59,51.2A36.32,36.32,0,0,0,275.05,409a82.5,82.5,0,0,0,11.54-.44l2.81-27.23,2.37,26.49s.59,1.18,7.25,1,16.72-2.66,16.72-2.66l-3-49.87Z" style="fill:#FF0000;stroke:#263238;stroke-linecap:round;stroke-linejoin:round"></path><path d="M278.8,285.17c.25-.28-16.38,5.52-18.61,9.72-3,5.73-6.74,30.36-6.37,28.88L264,326.91,265,359s16.07,5.06,28.3,3.84a183.57,183.57,0,0,0,20.61-3.14l-2.62-32.75L324,324.82l-8.13-28.27a5.28,5.28,0,0,0-3.49-4.08L298,286.21Z" style="fill:#fff"></path><path d="M253.82,323.77,264,326.91l0,.78h47.36l0-.78L324,324.82l-.51-2.92H253.7C253.7,323.32,253.75,324.07,253.82,323.77Z" style="fill:#c9c9c9"></path><path d="M256.6,308.07c-.19,2-1.07,3.75-1.18,5.61l65.66.1-1.77-5.71Z" style="fill:#c9c9c9"></path><line x1="263.02" y1="307.1" x2="262.86" y2="303.81" style="fill:none;stroke:#263238;stroke-linecap:round;stroke-linejoin:round"></line><line x1="263.95" y1="326.91" x2="263.22" y2="311.33" style="fill:none;stroke:#263238;stroke-linecap:round;stroke-linejoin:round"></line><line x1="310.07" y1="307.6" x2="309.96" y2="305.86" style="fill:none;stroke:#263238;stroke-linecap:round;stroke-linejoin:round"></line><line x1="311.29" y1="326.91" x2="310.38" y2="312.51" style="fill:none;stroke:#263238;stroke-linecap:round;stroke-linejoin:round"></line><path d="M260.19,294.89a17.8,17.8,0,0,0-1.42,4.61h57.66l-.52-2.95a5.29,5.29,0,0,0-1-2.27H260.62A4.29,4.29,0,0,0,260.19,294.89Z" style="fill:#c9c9c9"></path><polygon points="264.2 335.8 264.36 341.59 312.28 341.59 311.89 335.8 264.2 335.8" style="fill:#c9c9c9"></polygon><polygon points="264.58 349.7 264.74 355.49 313.21 355.49 312.82 349.7 264.58 349.7" style="fill:#c9c9c9"></polygon><path d="M278.8,285.17c.25-.28-16.38,5.52-18.61,9.72-3,5.73-6.74,30.36-6.37,28.88L264,326.91,265,359s16.07,5.06,28.3,3.84a183.57,183.57,0,0,0,20.61-3.14l-2.62-32.75L324,324.82l-8.13-28.27a5.28,5.28,0,0,0-3.49-4.08L298,286.21Z" style="fill:none;stroke:#263238;stroke-linecap:round;stroke-linejoin:round"></path><path d="M304.4,288.4,298,286.21l-19.22-1a59,59,0,0,0-7.53,2.15c1.58,4.66,8.5,8.16,16.8,8.16C295.71,295.48,302.19,292.51,304.4,288.4Z" style="fill:#FF0000;stroke:#263238;stroke-linecap:round;stroke-linejoin:round"></path><path d="M279,274.69l-1.23,12.75a16.45,16.45,0,0,0,9.26,3.67c5.59.34,11.7-3.5,11.7-3.5L297,277.13Z" style="fill:#fff;stroke:#263238;stroke-linecap:round;stroke-linejoin:round"></path><path d="M272,261.28s-2.06-2.2-3.08-.15-.44,6.16.73,7.18a5.48,5.48,0,0,0,2.78,1.18,60.81,60.81,0,0,0,5,8.35c2.64,3.52,6,6.2,9.1,6.79s4.07,0,5.83-1.19,9.4-8.24,9.69-10l.29-1.76a5.5,5.5,0,0,0,4.4-3.22,9.07,9.07,0,0,0,.44-7.47,6.89,6.89,0,0,0-1.61-2.35s3.37-1.9.58-6.45-3.07-5.71-10.7-6.89-20.66,5.43-21.39,7.33-.08,3.7-.7,4.12S272,261.28,272,261.28Z" style="fill:#fff;stroke:#263238;stroke-linecap:round;stroke-linejoin:round"></path><path d="M309.5,250.87c-1.46-6-4.25-7.18-6.15-6.3,0,0-5.13-6.74-13.19-8.35s-18.32,5-20.37,10.4.58,4.84.58,4.84-2.93,2.49-2.2,4c.62,1.22-.49,1.62,2.86,1.47.19,2.63.67,8.61,1.25,6.88a41.58,41.58,0,0,0,1.06-7h.26a50.74,50.74,0,0,0,13.33-3.23s-3.95,3.37-.88,3.52,11.88-6.89,11.88-6.89-1,5.86.87,6.74a27,27,0,0,0,5,1.47,50.11,50.11,0,0,0,.58,5.42c.3.88,1-.88,1-.88l1-3.52,1.17-2.63S311,256.88,309.5,250.87Z" style="fill:#263238;stroke:#263238;stroke-linecap:round;stroke-linejoin:round"></path><path d="M277,264.15s4-1.71,5.93,1.45" style="fill:none;stroke:#263238;stroke-linecap:round;stroke-linejoin:round"></path><path d="M292.4,265.75s1.27-1.83,5.72-.89" style="fill:none;stroke:#263238;stroke-linecap:round;stroke-linejoin:round"></path><path d="M282.14,265.27a1,1,0,1,1-2-.19,1,1,0,0,1,2,.19Z" style="fill:#263238"></path><path d="M295.34,265.63a1.07,1.07,0,1,1-1.17-1A1.06,1.06,0,0,1,295.34,265.63Z" style="fill:#263238"></path><path d="M284.42,270.29s.41,2.08,2.25,2.16,2.75-.75,3-1.5" style="fill:none;stroke:#263238;stroke-linecap:round;stroke-linejoin:round"></path><path d="M282.16,274.46a9.82,9.82,0,0,0,10.18.16" style="fill:none;stroke:#263238;stroke-linecap:round;stroke-linejoin:round"></path><path d="M275,260.51s2.44-3,8.9-.51" style="fill:none;stroke:#263238;stroke-linecap:round;stroke-linejoin:round"></path><path d="M290.25,260.67s4.72-3.42,9.85,1.24" style="fill:none;stroke:#263238;stroke-linecap:round;stroke-linejoin:round"></path></g></svg>
